<?xml version="1.0" standalone="no"?>
<svg xmlns:xlink="http://www.w3.org/1999/xlink" id="wave" style="transform:rotate(0deg); transition: 0.3s" viewBox="0 0 1440 490" version="1.1" xmlns="http://www.w3.org/2000/svg"><defs><linearGradient id="sw-gradient-0" x1="0" x2="0" y1="1" y2="0"><stop stop-color="rgba(243, 106, 62, 1)" offset="0%"/><stop stop-color="rgba(255, 179, 11, 1)" offset="100%"/></linearGradient></defs><path style="transform:translate(0, 0px); opacity:1" fill="url(#sw-gradient-0)" d="M0,49L60,114.3C120,180,240,310,360,375.7C480,441,600,441,720,367.5C840,294,960,147,1080,89.8C1200,33,1320,65,1440,73.5C1560,82,1680,65,1800,89.8C1920,114,2040,180,2160,220.5C2280,261,2400,278,2520,261.3C2640,245,2760,196,2880,212.3C3000,229,3120,310,3240,302.2C3360,294,3480,196,3600,179.7C3720,163,3840,229,3960,228.7C4080,229,4200,163,4320,147C4440,131,4560,163,4680,220.5C4800,278,4920,359,5040,326.7C5160,294,5280,147,5400,98C5520,49,5640,98,5760,106.2C5880,114,6000,82,6120,106.2C6240,131,6360,212,6480,253.2C6600,294,6720,294,6840,310.3C6960,327,7080,359,7200,326.7C7320,294,7440,196,7560,130.7C7680,65,7800,33,7920,57.2C8040,82,8160,163,8280,171.5C8400,180,8520,114,8580,81.7L8640,49L8640,490L8580,490C8520,490,8400,490,8280,490C8160,490,8040,490,7920,490C7800,490,7680,490,7560,490C7440,490,7320,490,7200,490C7080,490,6960,490,6840,490C6720,490,6600,490,6480,490C6360,490,6240,490,6120,490C6000,490,5880,490,5760,490C5640,490,5520,490,5400,490C5280,490,5160,490,5040,490C4920,490,4800,490,4680,490C4560,490,4440,490,4320,490C4200,490,4080,490,3960,490C3840,490,3720,490,3600,490C3480,490,3360,490,3240,490C3120,490,3000,490,2880,490C2760,490,2640,490,2520,490C2400,490,2280,490,2160,490C2040,490,1920,490,1800,490C1680,490,1560,490,1440,490C1320,490,1200,490,1080,490C960,490,840,490,720,490C600,490,480,490,360,490C240,490,120,490,60,490L0,490Z"/></svg>